<svg xmlns="http://www.w3.org/2000/svg" width="140" height="40" viewBox="0 0 140 40">
    <defs>
        <linearGradient id="nt0ao13q1a" x1="50.059%" x2="49.933%" y1="-15.98%" y2="120.691%">
            <stop offset="0%" stop-color="#6E4695"/>
            <stop offset="50%" stop-color="#DA358B"/>
            <stop offset="86%" stop-color="#EC6707"/>
        </linearGradient>
    </defs>
    <g fill="none" fill-rule="evenodd">
        <g>
            <path fill="#3D3E42" d="M0 0H240V668H0z" transform="translate(-30 -20)"/>
            <g fill-rule="nonzero">
                <g>
                    <g>
                        <path fill="#FFF" d="M14.444 9.413c.52-.496 1.218-.759 1.935-.73.651-.004 1.28.242 1.755.688.784.681 1.18 1.786 1.18 3.282s-.396 2.585-1.18 3.283c-.475.437-1.098.676-1.742.67-.718.012-1.408-.274-1.906-.792-.939-.934-1.12-2.243-1.12-3.177 0-.934.184-2.342 1.078-3.23v.006zm1.684 8.98c1.172.016 2.299-.451 3.115-1.293v5.6h2.039V9.211h-1.12c-.767-1.481-2.314-2.39-3.98-2.34-1.218-.03-2.398.426-3.28 1.267-1.048 1.054-1.613 2.644-1.613 4.472 0 1.92.597 3.555 1.684 4.582.857.793 1.988 1.223 3.155 1.2zM3.148 9.344c.475-.436 1.098-.675 1.742-.67.71-.004 1.392.284 1.884.799.925.918 1.119 2.226 1.119 3.16 0 .934-.187 2.343-1.077 3.231-.52.495-1.219.759-1.936.73-.644.005-1.267-.235-1.742-.672-.79-.691-1.187-1.793-1.187-3.289 0-1.496.397-2.585 1.181-3.283l.016-.006zm-2.12 6.717c.8 1.49 2.368 2.402 4.055 2.356 1.22.022 2.4-.443 3.278-1.293 1.041-1.056 1.612-2.643 1.612-4.472 0-1.919-.596-3.554-1.683-4.581-.853-.784-1.973-1.21-3.13-1.19-1.171-.017-2.298.45-3.115 1.293v-5.59H0v13.474h1.029v.003z" transform="translate(-30 -20) translate(30 20) translate(10 7) translate(.352 .407)"/>
                        <path fill="url(#nt0ao13q1a)" d="M31.01 26.173c-.502 0-.91-.408-.91-.911V1.028c-.001-.243.094-.477.265-.649.17-.172.403-.27.645-.27.244-.003.478.092.652.263.173.171.27.405.27.65v24.233c.002.245-.094.48-.268.653-.174.173-.41.268-.654.265z" transform="translate(-30 -20) translate(30 20) translate(10 7) translate(.352 .407)"/>
                        <path fill="#FFF" d="M40.69 18.121L40.69 6.365 48.731 6.365 48.731 7.726 42.216 7.726 42.216 11.309 47.138 11.309 47.138 12.699 42.216 12.699 42.216 16.76 48.731 16.76 48.731 18.121zM55.53 18.12l-.103-1.095c-.496.847-1.68 1.309-2.657 1.309-.935.022-1.84-.327-2.52-.97-.822-.81-1.251-2.022-1.251-3.415 0-1.392.461-2.669 1.339-3.483.675-.613 1.555-.951 2.467-.947.991-.027 1.938.415 2.555 1.192V6.14h1.458v11.982H55.53zm-1.06-6.846c-.898-.749-2.214-.698-3.052.116-.64.684-.974 1.6-.926 2.537 0 .969.258 1.938.91 2.585.435.41 1.017.625 1.613.597.534.01 1.053-.18 1.458-.53.719-.614.967-1.615.967-2.652 0-1.038-.251-2.04-.97-2.653zM64.65 18.12l-.12-1.26c-.445.97-1.68 1.477-2.658 1.477-1.816 0-3.051-1.212-3.051-3.082V9.732h1.474v5.322c0 1.26.548 2.007 1.919 2.007 1.235 0 2.258-1.06 2.258-2.453V9.732h1.474v8.402h-1.29l-.007-.013zM71.652 9.516c.935-.025 1.846.3 2.554.911.626.544 1.014 1.312 1.081 2.14h-1.474c-.065-.5-.31-.96-.687-1.293-.413-.347-.935-.535-1.474-.53-.593-.005-1.166.208-1.613.598-.739.646-.942 1.673-.942 2.585 0 .91.207 1.938.942 2.585.444.395 1.018.614 1.613.613.539.006 1.061-.182 1.474-.53.382-.332.631-.79.703-1.292h1.458c-.076.83-.47 1.6-1.1 2.146-.704.606-1.61.925-2.538.895-1 .008-1.966-.359-2.71-1.028-.907-.885-1.394-2.116-1.338-3.383-.057-1.267.43-2.499 1.338-3.383.743-.674 1.711-1.043 2.713-1.034zM83.796 18.237c-.344.014-.678-.115-.923-.357-.244-.242-.377-.575-.367-.92h-.036c-.513.847-1.645 1.377-2.864 1.377-2.074 0-3-1.292-3-2.472 0-1.244.89-2.62 3.103-2.737l2.71-.148v-.614c.043-.45-.12-.897-.445-1.212-.406-.342-.926-.518-1.455-.491-.573-.042-1.14.142-1.577.514-.277.249-.444.597-.465.97h-1.439c.023-.662.314-1.285.807-1.726.745-.631 1.698-.962 2.674-.928 1.68 0 2.674.747 3.087 1.658.176.39.264.815.258 1.244v4.084c0 .45.222.562.513.562.126-.005.253-.021.377-.048v1.044c-.298.144-.627.213-.958.2zm-1.37-4.162l-2.4.142c-.926.049-1.92.482-1.92 1.542 0 .746.497 1.392 1.732 1.392.67.02 1.322-.224 1.816-.678.499-.502.777-1.183.771-1.89v-.508zM90.605 18.305c-1.955 0-2.793-1.293-2.793-2.653v-4.711h-2.71V9.729h2.71V7.558l1.458-.45V9.73h3.625v1.212H89.27v4.569c0 .895.532 1.509 1.541 1.509.764-.021 1.514-.214 2.194-.562v1.25c-.734.406-1.562.613-2.4.598zM94.65 18.12V16.91h3.138v-5.984h-2.793V9.732h4.267v7.18h3.155v1.212H94.65v-.003zm2.76-9.98v-2h2.075v1.99l-2.074.01zM109.794 17.326c-.746.664-1.712 1.025-2.71 1.011-1.007.015-1.984-.346-2.741-1.011-.912-.89-1.405-2.125-1.355-3.4-.05-1.274.443-2.509 1.355-3.399.757-.665 1.734-1.025 2.741-1.011.998-.014 1.964.347 2.71 1.011.911.884 1.404 2.114 1.354 3.383.052 1.28-.44 2.52-1.354 3.416zm-1.113-5.984c-.928-.798-2.298-.798-3.226 0-.738.646-.967 1.657-.967 2.568 0 .912.238 1.958.967 2.605.928.797 2.298.797 3.226 0 .735-.647.968-1.674.968-2.585s-.233-1.942-.968-2.588zM118.483 18.12V12.8c0-1.228-.564-2.007-1.903-2.007-.851.046-1.606.565-1.954 1.344-.269.686-.397 1.42-.378 2.156v3.829h-1.474V9.719h1.29l.12 1.267c.512-.97 1.696-1.477 2.71-1.477 1.967.007 3.096 1.154 3.096 3.093v5.522h-1.494l-.013-.003z" transform="translate(-30 -20) translate(30 20) translate(10 7) translate(.352 .407)"/>
                    </g>
                </g>
            </g>
        </g>
    </g>
</svg>
